<svg xmlns="http://www.w3.org/2000/svg" version="1.1" xmlns:xlink="http://www.w3.org/1999/xlink"
    xmlns:svgjs="http://svgjs.com/svgjs" width="512" height="512" x="0" y="0" viewBox="0 0 73 73"
    style="enable-background:new 0 0 512 512" xml:space="preserve" class=""><g><g id="_x35_"><path d="m9.08531 52.5430679c1.4924927 1.7174683 3.4321289 3.0952148 5.5558472 3.8945923 3.603672 1.8095169 7.6015053 1.8948364 11.5748291 1.1947021.1206665-.0210571.2236328-.0758667.3151855-.1447144 1.2851563-.2097168 2.6002808-.6740723 3.9567261-1.3845215 7.8488064 9.7366714 18.0635853 12.3673248 25.9313335 9.7132568 5.5762939-1.4000854 9.3046303-5.0993042 11.6278114-11.5062866.041626-.1144409.0458374-.2304077.0321655-.3434448 1.1639404-3.0847168.8427734-6.5727539.3428345-9.4934692-1.2851563-7.5380859-5.5800819-14.4619122-12.7646523-20.5795879-2.0458374-1.7424927-5.9115601-4.1544189-10.1934814-5.3763428-.2409668-.7155151-.5164185-1.3856201-.8180542-2.0205078.0112305-.1081543.0047607-.2189941-.0343628-.3282471-.6396484-1.7851572-2.7890625-6.2236338-8.9179688-8.8720713-2.0299683-.876709-4.4438457-1.2097168-6.9678326-1.0444946-6.0865707-.1043215-11.4443569 3.0927286-15.6199341 7.5756226-11.3898375 12.2278643-11.0335444 30.6450987-4.0204466 38.7155142zm11.7053833 2.3867798c2.4378014-.21175 4.7223816-1.7252655 6.6234741-3.2056274.6668701 1.0881348 1.3809204 2.1480103 2.1429443 3.1729736-2.9281311 1.4674263-6.0401668 1.7775307-8.7664184.0326538zm33.3090801 9.8157959c-4.5683594.6464844-9.1972656-.5615234-13.7519531-3.5732422-3.4091797-2.2568359-6.1123047-4.5537109-8.2675781-7.0263672-5.9216633-6.673214-8.5190525-15.7304878-7.7275372-21.2607422.5068359-3.4990215 2.2705078-8.1503887 5.6992188-10.709959.87677-.6531982 1.7349243-1.1629639 2.5631695-1.5795288-2.2456646 2.0983276-3.4327374 4.7171021-3.6129742 8.0062866-.4219723 7.4995785 3.5486126 15.147337 8.4082012 20.8652325 9.3505135 11.0107727 21.4539185 12.4100571 26.7253456 9.2901611-2.3899574 3.4353638-5.6619911 5.3757325-10.0358925 5.9881592zm-17.5322876-44.8628521c.3403931 1.1973877.5996094 2.4174805.7536011 3.6525269-1.8086548-.1806641-3.6126099-.0929565-5.3934917.2459106 1.0595989-1.7520637 2.6219539-3.1356354 4.6398906-3.8984375zm-6.0673199 8.8023071c.0535278-.9762573.2161865-1.87854.4706421-2.7236328.2038364-.0307503 1.9233494-.4621029 6.5176983-.305481.292881 8.4669704-3.83395 13.7582912-4.2640381 14.7388897-2.0666485-4.1578368-2.9379253-7.9211425-2.7243023-11.7097759zm15.88867 3.0249024c.1350098-.7207031.2322388-1.5164795.2960205-2.3525391 3.6075401 1.5906773 9.8622932 7.7088642 12.8793945 15.0447369.7701416 1.8726196 1.3569336 3.821228 1.7374268 5.8102417.5900497 3.0847092.5903702 6.3335075-1.7357788 8.4309082-.9244385.0938721-1.8242188.0893555-2.6223755.0222168-6.6774292-.5432739-12.8825073-3.902832-17.9859619-9.7116699 3.6773071-4.5271607 6.119812-10.168396 7.4312744-17.2438946zm-1.1191406-4.5478516c0 5.993597-2.5388489 14.6717129-7.2844849 20.6345806-1.1536903-1.4261932-2.1216049-2.7956619-3.1998291-4.5930786 2.1689453-3.7686157 3.628418-8.0599365 4.3251343-12.7734356 1.0398636-6.9954357.1486359-14.0122013-4.4278564-19.3312988 7.7481117.2081738 10.6140365 8.3509045 10.5870361 16.0632324zm-13.0588989-15.7939462c1.5467529 1.9534302 2.7938843 4.1385498 3.6812744 6.4672251-1.9035034.4160767-4.2731915 1.3014526-6.7366314 3.1372681-1.4104614 1.0529785-2.6395264 2.4978027-3.6516113 4.1841431-.3986816.5653687-.7644043 1.1538696-1.0903931 1.7637939-1.2619019 2.361145-1.9866333 5.0127563-2.1332397 7.6844463-.2841187 5.1779175 1.3795166 10.2780762 3.8399658 14.8659058-3.90695 3.1332817-5.4203148 3.1348801-7.9685059 2.8618774-4.4676819-6.3333244-5.4705887-18.0066071 1.6209717-30.0374126 2.8212891-4.7783203 6.0605469-8.0478525 9.9013672-9.9951181.8532714-.4288331 1.6968994-.7312013 2.5368023-.932129zm34.7327308 33.3579092c.8775253 5.122345.6824722 10.5523949-3.9539223 12.9482422.8035278-1.7181396.8526001-3.8077393.7644653-5.1787109-.7294922-11.1298828-7.390625-18.6123047-12.8515625-22.9301739-1.4142456-1.1147461-2.7714844-2.039978-4.137085-2.8336182-.0178833-1.7289429-.1873779-4.0570679-.7904053-6.4908447 3.6756592 1.2167969 6.9266968 3.2756348 8.7097168 4.7941895 6.9101564 5.883789 11.0341836 12.5082988 12.258793 19.690916zm-29.1604042-34.6102286c-7.8507195-2.431613-15.1120663 4.320631-19.3024883 11.4173594-9.5643454 16.2266941-4.6485357 31.2243366 1.9483643 34.9279175-4.1814575-.3538818-7.5023804-2.2201538-10.2169189-5.7086792-2.8349614-3.6425781-4.101563-8.2509766-3.7656255-13.6953125.5556641-9.0009747 3.0224614-15.4619122 8.2490234-21.6025391 1.9130859-2.2480469 5.0947266-5.1040039 8.2841797-6.3764648 3.2802734-1.3105469 8.1855469-2.1044922 12.1181622-.4047852 1.0113529.4369497 1.8994755.9262686 2.6853031 1.4425039z" fill="#bb8816" data-original="#000000"></path></g></g></svg>